2c6c1e4edf46e55a8173d06f165e24e1 *tests/data/fate/mov-mp4-disposition-mpegts-remux.mp4
7045 tests/data/fate/mov-mp4-disposition-mpegts-remux.mp4
#tb 0: 1/48000
#media_type 0: audio
#codec_id 0: ac3
#sample_rate 0: 48000
#channel_layout_name 0: stereo
#tb 1: 1/48000
#media_type 1: audio
#codec_id 1: ac3
#sample_rate 1: 48000
#channel_layout_name 1: stereo
1,          0,          0,     1536,     1394, 0x4712b103, S=1,        4
1,          1,          1,     1536,      768, 0x7d577f3f
1,       1536,       1536,     1536,      768, 0xd86b7c8f
0,       3072,       3072,     1536,     1458, 0x4b62c477, S=1,        4
1,       3072,       3072,     1536,      626, 0x09f4382f
0,       3073,       3073,     1536,      690, 0xa2714bf3
{
    "programs": [

    ],
    "streams": [
        {
            "index": 0,
            "disposition": {
                "default": 1,
                "dub": 0,
                "original": 0,
                "comment": 0,
                "lyrics": 0,
                "karaoke": 0,
                "forced": 0,
                "hearing_impaired": 1,
                "visual_impaired": 0,
                "clean_effects": 0,
                "attached_pic": 0,
                "timed_thumbnails": 0,
                "captions": 1,
                "descriptions": 0,
                "metadata": 0,
                "dependent": 0,
                "still_image": 0
            },
            "side_data_list": [
                {

                }
            ]
        },
        {
            "index": 1,
            "disposition": {
                "default": 0,
                "dub": 0,
                "original": 0,
                "comment": 0,
                "lyrics": 0,
                "karaoke": 0,
                "forced": 0,
                "hearing_impaired": 0,
                "visual_impaired": 1,
                "clean_effects": 0,
                "attached_pic": 0,
                "timed_thumbnails": 0,
                "captions": 0,
                "descriptions": 1,
                "metadata": 0,
                "dependent": 0,
                "still_image": 0
            },
            "side_data_list": [
                {

                }
            ]
        }
    ]
}
